<svg width="24" height="16" viewBox="0 0 24 16" fill="none" xmlns="http://www.w3.org/2000/svg">
<g id="eye">
<path id="Vector" d="M23.8391 7.46221C22.924 5.3325 21.3355 3.49073 19.2698 2.16452C17.2041 0.838313 14.7517 0.0858035 12.2159 0C9.68005 0.0858035 7.22773 0.838313 5.16202 2.16452C3.09632 3.49073 1.50778 5.3325 0.592735 7.46221C0.530937 7.61601 0.530937 7.78443 0.592735 7.93823C1.50778 10.0679 3.09632 11.9097 5.16202 13.2359C7.22773 14.5621 9.68005 15.3146 12.2159 15.4004C14.7517 15.3146 17.2041 14.5621 19.2698 13.2359C21.3355 11.9097 22.924 10.0679 23.8391 7.93823C23.9009 7.78443 23.9009 7.61601 23.8391 7.46221ZM12.2159 14.0004C8.09255 14.0004 3.73581 11.2493 2.15649 7.70022C3.73581 4.15112 8.09255 1.40004 12.2159 1.40004C16.3392 1.40004 20.696 4.15112 22.2753 7.70022C20.696 11.2493 16.3392 14.0004 12.2159 14.0004Z" fill="white"/>
<path id="Vector_2" d="M12.216 3.5C11.2928 3.5 10.3903 3.74633 9.62267 4.20785C8.85503 4.66936 8.25673 5.32533 7.90342 6.0928C7.55012 6.86027 7.45768 7.70478 7.63779 8.51952C7.8179 9.33426 8.26248 10.0827 8.9153 10.6701C9.56813 11.2574 10.3999 11.6575 11.3054 11.8195C12.2109 11.9816 13.1494 11.8984 14.0024 11.5805C14.8553 11.2626 15.5844 10.7243 16.0973 10.0336C16.6102 9.34287 16.884 8.53082 16.884 7.70012C16.884 6.58618 16.3922 5.51786 15.5168 4.73019C14.6414 3.94251 13.454 3.5 12.216 3.5ZM12.216 10.5002C11.6005 10.5002 10.9989 10.336 10.4871 10.0283C9.97537 9.72062 9.5765 9.28331 9.34096 8.77166C9.10542 8.26001 9.0438 7.69701 9.16387 7.15385C9.28395 6.61069 9.58033 6.11176 10.0155 5.72016C10.4508 5.32857 11.0053 5.06188 11.6089 4.95384C12.2126 4.8458 12.8383 4.90125 13.4069 5.11318C13.9756 5.32511 14.4616 5.68401 14.8035 6.14448C15.1455 6.60495 15.328 7.14632 15.328 7.70012C15.328 8.44275 15.0001 9.15496 14.4165 9.68007C13.8329 10.2052 13.0414 10.5002 12.216 10.5002Z" fill="white"/>
</g>
</svg>
